<svg id="Layer_1" data-name="Layer 1" xmlns="http://www.w3.org/2000/svg" xmlns:xlink="http://www.w3.org/1999/xlink" viewBox="0 0 50 50"><defs><style>.cls-1,.cls-2,.cls-3,.cls-4,.cls-5{fill-rule:evenodd;}.cls-1{fill:url(#linear-gradient);}.cls-2{fill:#059b49;}.cls-3{fill:url(#linear-gradient-2);}.cls-4{fill:url(#linear-gradient-3);}.cls-5{fill:url(#linear-gradient-4);}</style><linearGradient id="linear-gradient" x1="0.06" y1="27" x2="49.94" y2="27" gradientTransform="matrix(1, 0, 0, -1, 0, 52)" gradientUnits="userSpaceOnUse"><stop offset="0" stop-color="#a6772b"/><stop offset="0.31" stop-color="#ffcf43"/><stop offset="0.42" stop-color="#fcf6b7"/><stop offset="0.58" stop-color="#ffcf43"/><stop offset="0.84" stop-color="#a6772b"/><stop offset="0.97" stop-color="#ffcf43"/><stop offset="1" stop-color="#ffcf43"/></linearGradient><linearGradient id="linear-gradient-2" x1="-57.38" y1="-32.15" x2="-6.67" y2="-79.08" gradientTransform="matrix(1, -0.02, -0.02, -1, 60.49, -27.38)" xlink:href="#linear-gradient"/><linearGradient id="linear-gradient-3" x1="0.11" y1="41.83" x2="50.82" y2="-5.1" xlink:href="#linear-gradient"/><linearGradient id="linear-gradient-4" x1="0.86" y1="42.64" x2="51.57" y2="-4.28" xlink:href="#linear-gradient"/></defs><path class="cls-1" d="M.06,25A24.92,24.92,0,0,0,25,49.87h0A24.89,24.89,0,0,0,49.94,25h0A24.94,24.94,0,0,0,.06,25ZM1,25A23.94,23.94,0,0,1,25,1.2h0A23.89,23.89,0,0,1,49,25h0A23.94,23.94,0,0,1,25,48.8h0A24,24,0,0,1,1,25Z"/><path class="cls-2" d="M27.74,33.76h1.4v1.4h-1.4v-1.4Zm1.94,0h1.4v1.4h-1.4v-1.4Zm-1.94,1.87h1.4V37h-1.4v-1.4Zm1.94,0h1.4V37h-1.4v-1.4Zm7.89-3.88h.87v.87h-.87v-.87Zm-8.16-.33,7,4.14c.06-.06.26-.06.4-.13l-2.08-1.54V32.55l4-2.27,4.75,2.81c.06,0,.13-.07.2-.07L42,31.82V30.35h-.93v.8l-2.41-1.74-4,2.88v-.74H33.22v1.27l-3.74-2.74-3.54,2.54-.41.4v.67l.41-.2,3.47-2.07Zm9.36.33h.87v.87h-.87v-.87ZM37.57,33h.87v.87h-.87V33Zm1.2,0h.87v.87h-.87Z"/><path class="cls-3" d="M38.1,18.25A11.09,11.09,0,0,0,33,10.63,18.92,18.92,0,0,0,21.79,7.42h0c-10,.2-20,7.55-17.45,20.45C6.15,8.89,28.68,4.74,38.1,18.25Z"/><path class="cls-4" d="M5.34,29.55a14.09,14.09,0,0,0,5.55,9.22c2.88,2.21,6.09,4,11,3.68A17.88,17.88,0,0,1,17,41a15.74,15.74,0,0,1-3.55-2.21,15,15,0,0,1-3.74-4.48,13.77,13.77,0,0,1,.74-14.71c2.34-3.34,5.74-6.75,11.76-7.68a16.68,16.68,0,0,0-13.9,7.28A14.43,14.43,0,0,0,5.34,29.55Z"/><path class="cls-5" d="M14.77,18V36.9a20.92,20.92,0,0,1-4.28-3.07h0c1.34,2.54,5.62,7.22,11.9,7.48h0c6.29.27,10.3-1.67,15-3.81,2.34-1,6.21-2.94,8.62-2.81-3.28-1.6-5.35-.66-8.62.41-3.88,1.33-8.16,3.14-11.5,3.81h0V24.33l-3.15-.93-1.27.6V39.31c-.2-.07-.46-.07-.67-.14h0V18.31l-3.94-1.2L14.77,18Zm1.94-.8.2-.07.2.07V38h-.4V17.18Zm.8,1.47h.8v1.14h-.8V18.65Zm0,1.74h.8v1.13h-.8V20.39Zm1.81.2h.8v1.13h-.8V20.59Zm-1.81,1.47h.8v1.13h-.8V22.06Zm1.81.27h.8v1.13h-.8V22.33Zm3.27,1.27.2-.14.2.07V39.31h-.4V23.6Zm-5.08.2h.8v1.13h-.8V23.8Zm1.81.26h.8V25.2h-.8V24.06ZM23.4,25h.73v1H23.4V25Zm-5.89.53h.8v1.14h-.8V25.53Zm1.81.27h.8v1.14h-.8V25.8Zm4.08.74h.73v1H23.4v-1Zm1.2.6h.73v1.07H24.6V27.14Zm-7.09.07h.8v1.13h-.8V27.21Zm1.81.33h.8v1.14h-.8V27.54Zm4.08.54h.73v1H23.4v-1Zm1.2.6h.73v1H24.6v-1Zm-7.09.26h.8v1.14h-.8V28.94Zm1.81.34h.8v1.14h-.8V29.28Zm4.08.33h.73v1H23.4v-1Zm1.2.54h.73v1H24.6v-1Zm-7.09.53h.8v1.14h-.8V30.68Zm1.81.34h.8v1.13h-.8V31Zm4.08.13h.73v1H23.4v-1Zm1.2.54h.73v1H24.6v-1Zm-7.09.73h.8v1.14h-.8V32.42Zm5.89.27h.73v1H23.4v-1Zm-4.08.07h.8v1.13h-.8V32.76Zm5.28.4h.73v1H24.6v-1Zm-7.09.93h.8v1.14h-.8V34.09Zm5.89.14h.73v1H23.4v-1Zm-4.08.33h.8V35.7h-.8V34.56Zm5.28.13h.73v1H24.6v-1Zm-1.2,1h.73v1H23.4v-1Zm-5.89.13h.8V37h-.8V35.83Zm7.09.34h.73v1H24.6v-1Zm-5.28.13h.8v1.14h-.8V36.3Zm4.08.93h.73v1H23.4v-1Zm-5.89.34h.8v1.14h-.8V37.57Zm7.09.13h.73v1H24.6v-1ZM19.32,38h.8v1.13h-.8Z"/></svg>